<?xml version="1.0" encoding="UTF-8" standalone="no"?>
<svg
   xmlns:dc="http://purl.org/dc/elements/1.1/"
   xmlns:cc="http://creativecommons.org/ns#"
   xmlns:rdf="http://www.w3.org/1999/02/22-rdf-syntax-ns#"
   xmlns:svg="http://www.w3.org/2000/svg"
   xmlns="http://www.w3.org/2000/svg"
   xmlns:sodipodi="http://sodipodi.sourceforge.net/DTD/sodipodi-0.dtd"
   xmlns:inkscape="http://www.inkscape.org/namespaces/inkscape"
   height="32"
   width="32"
   version="1.1"
   id="svg2"
   inkscape:version="0.48.4 r9939"
   sodipodi:docname="close-window.svg">
  <metadata
     id="metadata29">
    <rdf:RDF>
      <cc:Work
         rdf:about="">
        <dc:format>image/svg+xml</dc:format>
        <dc:type
           rdf:resource="http://purl.org/dc/dcmitype/StillImage" />
      </cc:Work>
    </rdf:RDF>
  </metadata>
  <sodipodi:namedview
     pagecolor="#ffffff"
     bordercolor="#666666"
     borderopacity="1"
     objecttolerance="10"
     gridtolerance="10"
     guidetolerance="10"
     inkscape:pageopacity="0"
     inkscape:pageshadow="2"
     inkscape:window-width="1440"
     inkscape:window-height="852"
     id="namedview27"
     showgrid="false"
     inkscape:zoom="14.75477"
     inkscape:cx="3.0962293"
     inkscape:cy="14.374962"
     inkscape:window-x="0"
     inkscape:window-y="25"
     inkscape:window-maximized="1"
     inkscape:current-layer="svg2" />
  <defs
     id="defs4">
    <filter
       id="c"
       height="1.4181"
       width="1.4198"
       color-interpolation-filters="sRGB"
       y="-.20904"
       x="-.20990">
      <feGaussianBlur
         stdDeviation="1.3282637"
         id="feGaussianBlur7" />
    </filter>
    <filter
       id="b"
       height="1.4261"
       width="1.426"
       color-interpolation-filters="sRGB"
       y="-.21306"
       x="-.21298">
      <feGaussianBlur
         stdDeviation="0.71020915"
         id="feGaussianBlur10" />
    </filter>
    <radialGradient
       id="d"
       gradientUnits="userSpaceOnUse"
       cy="5.8191"
       cx="7.6583"
       gradientTransform="matrix(1.4402 0 0 1.4461 4.971 2.8359)"
       r="8.6929">
      <stop
         stop-color="#7b7b7b"
         offset="0"
         id="stop13" />
      <stop
         stop-color="#101010"
         offset="1"
         id="stop15" />
    </radialGradient>
    <filter
       inkscape:collect="always"
       id="filter5353">
      <feGaussianBlur
         inkscape:collect="always"
         stdDeviation="0.425"
         id="feGaussianBlur5355" />
    </filter>
    <filter
       inkscape:collect="always"
       id="filter3794"
       x="-0.11997979"
       width="1.2399596"
       y="-0.12002022"
       height="1.2400404">
      <feGaussianBlur
         inkscape:collect="always"
         stdDeviation="0.40006489"
         id="feGaussianBlur3796" />
    </filter>
  </defs>
  <rect
     style="fill:#444444;fill-opacity:1;fill-rule:evenodd;stroke:#707070;stroke-width:0.84848486999999984;stroke-opacity:1"
     id="rect3006"
     width="27.151516"
     height="27.151516"
     x="2.4242425"
     y="2.4242415"
     rx="3.3939395"
     ry="3.3939395" />
  <path
     d="m 9.1471349,9.1371791 h 1.7293881 c 0.0178,-2.05e-4 0.036,-7.95e-4 0.05404,0 0.440903,0.01939 0.881738,0.2224069 1.188948,0.5405399 l 3.944897,3.945675 3.999196,-3.945675 c 0.459363,-0.3987019 0.772464,-0.5284319 1.188952,-0.5405399 h 1.729386 v 1.7297249 c 0,0.495512 -0.05941,0.952473 -0.432345,1.297275 l -3.944893,3.945675 3.89111,3.891874 c 0.325443,0.325485 0.486372,0.784346 0.486372,1.243242 v 1.729722 h -1.729384 c -0.458791,-1.8e-5 -0.917578,-0.161034 -1.242974,-0.486467 l -3.942651,-3.943423 -3.946108,3.945674 c -0.325534,0.325847 -0.784242,0.485185 -1.24317,0.485185 H 9.1487119 v -1.729723 c -5e-6,-0.458877 0.1609409,-0.917756 0.4863691,-1.24324 L 13.579977,16.111684 9.63508,12.166012 C 9.2705428,11.829477 9.1107459,11.354511 9.1487899,10.86886 V 9.1391341 z"
     id="path25"
     inkscape:connector-curvature="0"
     style="fill:#ffffff" />
</svg>
