<?xml version="1.0" encoding="UTF-8" standalone="no"?>
<!-- Created with Inkscape (http://www.inkscape.org/) -->

<svg
   xmlns:dc="http://purl.org/dc/elements/1.1/"
   xmlns:cc="http://creativecommons.org/ns#"
   xmlns:rdf="http://www.w3.org/1999/02/22-rdf-syntax-ns#"
   xmlns:svg="http://www.w3.org/2000/svg"
   xmlns="http://www.w3.org/2000/svg"
   xmlns:sodipodi="http://sodipodi.sourceforge.net/DTD/sodipodi-0.dtd"
   xmlns:inkscape="http://www.inkscape.org/namespaces/inkscape"
   inkscape:export-ydpi="90.000000"
   inkscape:export-xdpi="90.000000"
   width="24"
   height="24"
   id="svg11300"
   sodipodi:version="0.32"
   inkscape:version="0.91 r"
   sodipodi:docname="auto-tile-2.svg"
   inkscape:output_extension="org.inkscape.output.svg.inkscape"
   version="1.0"
   style="display:inline;enable-background:new">
  <sodipodi:namedview
     stroke="#ef2929"
     fill="#f57900"
     id="base"
     pagecolor="#8c8c8c"
     bordercolor="#ff5e00"
     borderopacity="1"
     inkscape:pageopacity="1"
     inkscape:pageshadow="2"
     inkscape:zoom="28.291667"
     inkscape:cx="7.3921241"
     inkscape:cy="12"
     inkscape:current-layer="layer1"
     showgrid="true"
     inkscape:grid-bbox="true"
     inkscape:document-units="px"
     inkscape:showpageshadow="false"
     inkscape:window-width="1600"
     inkscape:window-height="875"
     inkscape:window-x="0"
     inkscape:window-y="25"
     width="400px"
     height="300px"
     inkscape:snap-nodes="true"
     inkscape:snap-bbox="true"
     gridtolerance="10000"
     inkscape:object-nodes="true"
     inkscape:snap-grids="true"
     showguides="true"
     inkscape:guide-bbox="true"
     inkscape:window-maximized="1"
     inkscape:bbox-nodes="true"
     inkscape:bbox-paths="false"
     inkscape:snap-bbox-edge-midpoints="false"
     inkscape:snap-bbox-midpoints="false"
     objecttolerance="10000"
     guidetolerance="10000"
     borderlayer="true"
     showborder="true"
     guidecolor="#ff0b00"
     guideopacity="1"
     guidehicolor="#001aff"
     guidehiopacity="0.49803922">
    <inkscape:grid
       type="xygrid"
       id="grid3123"
       empspacing="4"
       visible="true"
       enabled="true"
       snapvisiblegridlinesonly="true" />
  </sodipodi:namedview>
  <defs
     id="defs3" />
  <metadata
     id="metadata4">
    <rdf:RDF>
      <cc:Work
         rdf:about="">
        <dc:format>image/svg+xml</dc:format>
        <dc:type
           rdf:resource="http://purl.org/dc/dcmitype/StillImage" />
        <dc:creator>
          <cc:Agent>
            <dc:title />
          </cc:Agent>
        </dc:creator>
        <dc:source />
        <cc:license
           rdf:resource="" />
        <dc:title />
        <dc:subject>
          <rdf:Bag />
        </dc:subject>
        <dc:date />
        <dc:rights>
          <cc:Agent>
            <dc:title />
          </cc:Agent>
        </dc:rights>
        <dc:publisher>
          <cc:Agent>
            <dc:title />
          </cc:Agent>
        </dc:publisher>
        <dc:identifier />
        <dc:relation />
        <dc:language />
        <dc:coverage />
        <dc:description />
        <dc:contributor>
          <cc:Agent>
            <dc:title />
          </cc:Agent>
        </dc:contributor>
      </cc:Work>
      <cc:Work
         rdf:about="">
        <dc:format>image/svg+xml</dc:format>
        <dc:type
           rdf:resource="http://purl.org/dc/dcmitype/StillImage" />
      </cc:Work>
    </rdf:RDF>
  </metadata>
  <g
     style="display:inline"
     inkscape:groupmode="layer"
     inkscape:label="Base"
     id="layer1"
     transform="translate(0,-276)">
    <path
       style="opacity:1;fill:#000000;fill-opacity:1;stroke:none;stroke-width:2;stroke-linecap:square;stroke-linejoin:round;stroke-miterlimit:4;stroke-dasharray:none;stroke-dashoffset:0;stroke-opacity:1"
       d="M 3 3 L 3 14 L 6 14 L 6 21 L 9 21 L 9 14 L 15 14 L 15 21 L 18 21 L 18 14 L 21 14 L 21 3 L 3 3 z M 4 4 L 11 4 L 11 8 L 4 8 L 4 4 z M 13 4 L 20 4 L 20 8 L 13 8 L 13 4 z M 4 9 L 11 9 L 11 13 L 4 13 L 4 9 z M 13 9 L 20 9 L 20 13 L 13 13 L 13 9 z M 7 15 L 8 15 L 8 17 L 7 17 L 7 15 z M 16 15 L 17 15 L 17 17 L 16 17 L 16 15 z M 7 18 L 8 18 L 8 20 L 7 20 L 7 18 z M 16 18 L 17 18 L 17 20 L 16 20 L 16 18 z "
       transform="translate(0,276)"
       id="rect5847" />
    <path
       style="fill:#000000;fill-opacity:1;opacity:0"
       d="m 1,278 0,13 4,0 0,7 3,0 0,-7 8,0 0,7 3,0 0,-7 4,0 0,-13 z m 1,1 9,0 0,5 -9,0 z m 11,0 9,0 0,5 -9,0 z m -11,6 9,0 0,5 -9,0 z m 11,0 9,0 0,5 -9,0 z m -7,7 1,0 0,2 -1,0 z m 11,0 1,0 0,2 -1,0 z m -11,3 1,0 0,2 -1,0 z m 11,0 1,0 0,2 -1,0 z"
       id="rect3216"
       inkscape:connector-curvature="0"
       sodipodi:nodetypes="ccccccccccccccccccccccccccccccccccccccccccccccccccccc" />
    <path
       style="fill:#ffffff;fill-opacity:1"
       d="M 7 15 L 7 17 L 8 17 L 8 15 L 7 15 z M 16 15 L 16 17 L 17 17 L 17 15 L 16 15 z M 7 18 L 7 20 L 8 20 L 8 18 L 7 18 z M 16 18 L 16 20 L 17 20 L 17 18 L 16 18 z "
       transform="translate(0,276)"
       id="path5857" />
    <path
       id="rect3263"
       style="opacity:0.5;fill:#ffffff;fill-opacity:1"
       d="m 4,280 7,0 0,4 -7,0 z m 0,5 7,0 0,4 -7,0 z m 9,-5 7,0 0,4 -7,0 z m 0,5 7,0 0,4 -7,0 z"
       inkscape:connector-curvature="0"
       sodipodi:nodetypes="cccccccccccccccccscc" />
  </g>
</svg>
