<?xml version="1.0" encoding="UTF-8" standalone="no"?>
<!-- Created with Inkscape (http://www.inkscape.org/) -->

<svg
   xmlns:dc="http://purl.org/dc/elements/1.1/"
   xmlns:cc="http://creativecommons.org/ns#"
   xmlns:rdf="http://www.w3.org/1999/02/22-rdf-syntax-ns#"
   xmlns:svg="http://www.w3.org/2000/svg"
   xmlns="http://www.w3.org/2000/svg"
   xmlns:xlink="http://www.w3.org/1999/xlink"
   xmlns:sodipodi="http://sodipodi.sourceforge.net/DTD/sodipodi-0.dtd"
   xmlns:inkscape="http://www.inkscape.org/namespaces/inkscape"
   inkscape:export-ydpi="90.000000"
   inkscape:export-xdpi="90.000000"
   width="41"
   height="41"
   id="svg11300"
   sodipodi:version="0.32"
   inkscape:version="0.91 r"
   sodipodi:docname="close-pressed.svg"
   inkscape:output_extension="org.inkscape.output.svg.inkscape"
   version="1.0"
   style="display:inline;enable-background:new">
  <sodipodi:namedview
     stroke="#ef2929"
     fill="#f57900"
     id="base"
     pagecolor="#8c8c8c"
     bordercolor="#ff5e00"
     borderopacity="1"
     inkscape:pageopacity="1"
     inkscape:pageshadow="2"
     inkscape:zoom="12.400238"
     inkscape:cx="-15.068635"
     inkscape:cy="20.177426"
     inkscape:current-layer="layer1"
     showgrid="true"
     inkscape:grid-bbox="true"
     inkscape:document-units="px"
     inkscape:showpageshadow="false"
     inkscape:window-width="1600"
     inkscape:window-height="875"
     inkscape:window-x="0"
     inkscape:window-y="25"
     width="400px"
     height="300px"
     inkscape:snap-nodes="false"
     inkscape:snap-bbox="true"
     gridtolerance="10000"
     inkscape:object-nodes="true"
     inkscape:snap-grids="true"
     showguides="false"
     inkscape:guide-bbox="true"
     inkscape:window-maximized="1"
     inkscape:bbox-nodes="true"
     inkscape:bbox-paths="false"
     inkscape:snap-bbox-edge-midpoints="false"
     inkscape:snap-bbox-midpoints="false"
     objecttolerance="10000"
     guidetolerance="10000"
     borderlayer="true"
     showborder="true"
     guidecolor="#ff0b00"
     guideopacity="1"
     guidehicolor="#001aff"
     guidehiopacity="0.49803922"
     inkscape:snap-global="true">
    <inkscape:grid
       type="xygrid"
       id="grid4347"
       empspacing="5"
       visible="true"
       enabled="true"
       snapvisiblegridlinesonly="true" />
  </sodipodi:namedview>
  <defs
     id="defs3">
    <linearGradient
       id="linearGradient4006-3-3">
      <stop
         id="stop4236"
         offset="0"
         style="stop-color:#ffffff;stop-opacity:1;" />
      <stop
         id="stop4238"
         offset="1"
         style="stop-color:#ffffff;stop-opacity:0;" />
    </linearGradient>
    <linearGradient
       id="linearGradient5902">
      <stop
         style="stop-color:#000000;stop-opacity:1;"
         offset="0"
         id="stop5904" />
      <stop
         style="stop-color:#000000;stop-opacity:0;"
         offset="1"
         id="stop5906" />
    </linearGradient>
    <linearGradient
       gradientTransform="matrix(1.0333333,0,0,1.0333333,-299.13333,-1.1999994)"
       inkscape:collect="always"
       xlink:href="#linearGradient4006-3-3"
       id="linearGradient5908-9"
       x1="3.9999969"
       y1="36.967743"
       x2="11.741933"
       y2="36.967743"
       gradientUnits="userSpaceOnUse" />
    <linearGradient
       gradientTransform="matrix(0.89999999,0,0,0.89999999,262.4,-39.4)"
       inkscape:collect="always"
       xlink:href="#linearGradient5902"
       id="linearGradient4056"
       x1="4"
       y1="21"
       x2="34"
       y2="21"
       gradientUnits="userSpaceOnUse" />
    <linearGradient
       gradientTransform="translate(-4e-7,259)"
       inkscape:collect="always"
       xlink:href="#linearGradient5902"
       id="linearGradient4157"
       x1="37"
       y1="7"
       x2="37"
       y2="34"
       gradientUnits="userSpaceOnUse" />
    <linearGradient
       inkscape:collect="always"
       xlink:href="#linearGradient5902"
       id="linearGradient4170"
       x1="8"
       y1="20.5"
       x2="33"
       y2="20.5"
       gradientUnits="userSpaceOnUse"
       gradientTransform="matrix(0,1,-1,0,41,259)" />
    <linearGradient
       inkscape:collect="always"
       xlink:href="#linearGradient5902"
       id="linearGradient4183"
       x1="9"
       y1="20.5"
       x2="32"
       y2="20.5"
       gradientUnits="userSpaceOnUse"
       gradientTransform="matrix(0,1,-1,0,41,259)" />
  </defs>
  <metadata
     id="metadata4">
    <rdf:RDF>
      <cc:Work
         rdf:about="">
        <dc:format>image/svg+xml</dc:format>
        <dc:type
           rdf:resource="http://purl.org/dc/dcmitype/StillImage" />
        <dc:creator>
          <cc:Agent>
            <dc:title />
          </cc:Agent>
        </dc:creator>
        <dc:source />
        <cc:license
           rdf:resource="" />
        <dc:title />
        <dc:subject>
          <rdf:Bag />
        </dc:subject>
        <dc:date />
        <dc:rights>
          <cc:Agent>
            <dc:title />
          </cc:Agent>
        </dc:rights>
        <dc:publisher>
          <cc:Agent>
            <dc:title />
          </cc:Agent>
        </dc:publisher>
        <dc:identifier />
        <dc:relation />
        <dc:language />
        <dc:coverage />
        <dc:description />
        <dc:contributor>
          <cc:Agent>
            <dc:title />
          </cc:Agent>
        </dc:contributor>
      </cc:Work>
      <cc:Work
         rdf:about="">
        <dc:format>image/svg+xml</dc:format>
        <dc:type
           rdf:resource="http://purl.org/dc/dcmitype/StillImage" />
      </cc:Work>
    </rdf:RDF>
  </metadata>
  <g
     style="display:inline"
     inkscape:groupmode="layer"
     inkscape:label="Base"
     id="layer1"
     transform="translate(0,-259)">
    <path
       style="fill:#000000;fill-opacity:1;stroke:none;opacity:0.02"
       d="M 20.5 1 A 19.5 19.5 0 0 0 1 20.5 A 19.5 19.5 0 0 0 20.5 40 A 19.5 19.5 0 0 0 40 20.5 A 19.5 19.5 0 0 0 20.5 1 z M 20.5 2 A 18.5 18.5 0 0 1 39 20.5 A 18.5 18.5 0 0 1 20.5 39 A 18.5 18.5 0 0 1 2 20.5 A 18.5 18.5 0 0 1 20.5 2 z "
       transform="translate(0,259)"
       id="path4178" />
    <path
       style="fill:#000000;fill-opacity:1;stroke:none;opacity:0.12"
       d="M 20.5 2 A 18.5 18.5 0 0 0 2 20.5 A 18.5 18.5 0 0 0 20.5 39 A 18.5 18.5 0 0 0 39 20.5 A 18.5 18.5 0 0 0 20.5 2 z M 20.5 3 A 17.5 17.5 0 0 1 38 20.5 A 17.5 17.5 0 0 1 20.5 38 A 17.5 17.5 0 0 1 3 20.5 A 17.5 17.5 0 0 1 20.5 3 z "
       id="path4173"
       transform="translate(0,259)" />
    <path
       style="display:inline;fill:#000000;fill-opacity:1;stroke:none;enable-background:new"
       d="M 20.5,262 A 17.5,17.5 0 0 0 3,279.5 17.5,17.5 0 0 0 20.5,297 17.5,17.5 0 0 0 38,279.5 17.5,17.5 0 0 0 20.5,262 Z m 0,1.40235 A 16.096783,16.096783 0 0 1 36.597656,279.5 16.096783,16.096783 0 0 1 20.5,295.59766 16.096783,16.096783 0 0 1 4.402344,279.5 16.096783,16.096783 0 0 1 20.5,263.40235 Z"
       id="circle4240"
       inkscape:connector-curvature="0" />
    <circle
       id="path5896"
       style="opacity:0.78;fill:#131619;fill-opacity:1;stroke:none"
       cx="20.500002"
       cy="279.5"
       r="16.499998" />
    <circle
       r="15.499999"
       cy="20.499998"
       cx="-279.5"
       style="display:inline;opacity:0.03;fill:url(#linearGradient5908-9);fill-opacity:1;stroke:none;enable-background:new"
       id="path5900-3"
       transform="matrix(0,-1,1,0,0,0)" />
    <circle
       r="14.5"
       cy="279.5"
       cx="20.5"
       id="path5698"
       style="display:inline;fill:#000000;fill-opacity:1;stroke:none;enable-background:new" />
    <circle
       r="13.5"
       cy="279.5"
       cx="20.499998"
       style="display:inline;fill:#bf5151;fill-opacity:1;stroke:none;enable-background:new"
       id="path5700" />
    <circle
       r="13.5"
       cy="-20.5"
       cx="279.5"
       transform="matrix(0,1,-1,0,0,0)"
       id="path4048"
       style="display:inline;opacity:0.1;fill:url(#linearGradient4056);fill-opacity:1;stroke:none;enable-background:new" />
    <path
       inkscape:connector-curvature="0"
       style="display:inline;opacity:0.2;fill:url(#linearGradient4157);fill-opacity:1;stroke:none;enable-background:new"
       d="m 20.5,266 c -7.455844,0 -13.5000004,6.04416 -13.5000004,13.5 0,7.45585 6.0441564,13.5 13.5000004,13.5 C 27.955844,293 34,286.95585 34,279.5 34,272.04416 27.955844,266 20.5,266 Z m 0,1 C 27.40356,267 33,272.59644 33,279.5 33,286.40356 27.40356,292 20.5,292 13.59644,292 7.9999996,286.40356 7.9999996,279.5 7.9999996,272.59644 13.59644,267 20.5,267 Z"
       id="path4146" />
    <path
       style="display:inline;opacity:0.07999998;fill:url(#linearGradient4170);fill-opacity:1;stroke:none;enable-background:new"
       d="M 33,279.5 C 33,272.59644 27.40356,267 20.5,267 c -6.90356,0 -12.5000004,5.59644 -12.5000004,12.5 0,6.90356 5.5964404,12.5 12.5000004,12.5 6.90356,0 12.5,-5.59644 12.5,-12.5 z m -1,0 c 0,6.35127 -5.148726,11.5 -11.5,11.5 -6.351274,0 -11.5000004,-5.14873 -11.5000004,-11.5 0,-6.35127 5.1487264,-11.5 11.5000004,-11.5 6.351274,0 11.5,5.14873 11.5,11.5 z"
       id="path4159-7"
       inkscape:connector-curvature="0" />
    <path
       style="display:inline;opacity:0.03999999;fill:url(#linearGradient4183);fill-opacity:1;stroke:none;enable-background:new"
       d="M 32,279.5 C 32,273.14873 26.851275,268 20.5,268 c -6.351275,0 -11.5000004,5.14873 -11.5000004,11.5 0,6.35127 5.1487254,11.5 11.5000004,11.5 6.351275,0 11.5,-5.14873 11.5,-11.5 z m -1,0 C 31,285.29899 26.29899,290 20.5,290 14.70101,290 9.9999996,285.29899 9.9999996,279.5 9.9999996,273.70101 14.70101,269 20.5,269 c 5.79899,0 10.5,4.70101 10.5,10.5 z"
       id="path4172"
       inkscape:connector-curvature="0" />
    <path
       sodipodi:nodetypes="ccccccccccccccccc"
       inkscape:connector-curvature="0"
       id="path4167"
       d="M 17.502513,275 16,275 l 0,1.50251 2.997487,2.9975 L 16,282.49749 16,284 17.502513,284 20.5,281.00251 23.497487,284 25,284 25,282.49749 22.002513,279.50001 25,276.50251 25,275 23.497487,275 20.5,277.99749 z"
       style="font-size:medium;font-style:normal;font-variant:normal;font-weight:normal;font-stretch:normal;text-indent:0;text-align:start;text-decoration:none;line-height:normal;letter-spacing:normal;word-spacing:normal;text-transform:none;direction:ltr;block-progression:tb;writing-mode:lr-tb;text-anchor:start;baseline-shift:baseline;opacity:1;color:#000000;fill:#ffffff;fill-opacity:1;stroke:none;stroke-width:2;marker:none;visibility:visible;display:inline;overflow:visible;enable-background:accumulate;font-family:Sans;-inkscape-font-specification:Sans" />
  </g>
</svg>
