<?xml version="1.0" encoding="UTF-8" standalone="no"?>
<!-- Created with Inkscape (http://www.inkscape.org/) -->

<svg
   xmlns:dc="http://purl.org/dc/elements/1.1/"
   xmlns:cc="http://creativecommons.org/ns#"
   xmlns:rdf="http://www.w3.org/1999/02/22-rdf-syntax-ns#"
   xmlns:svg="http://www.w3.org/2000/svg"
   xmlns="http://www.w3.org/2000/svg"
   xmlns:xlink="http://www.w3.org/1999/xlink"
   xmlns:sodipodi="http://sodipodi.sourceforge.net/DTD/sodipodi-0.dtd"
   xmlns:inkscape="http://www.inkscape.org/namespaces/inkscape"
   inkscape:export-ydpi="90.000000"
   inkscape:export-xdpi="90.000000"
   width="41"
   height="41"
   id="svg11300"
   sodipodi:version="0.32"
   inkscape:version="0.91 r"
   sodipodi:docname="close.svg"
   inkscape:output_extension="org.inkscape.output.svg.inkscape"
   version="1.0"
   style="display:inline;enable-background:new">
  <sodipodi:namedview
     stroke="#ef2929"
     fill="#f57900"
     id="base"
     pagecolor="#8c8c8c"
     bordercolor="#ff5e00"
     borderopacity="1"
     inkscape:pageopacity="1"
     inkscape:pageshadow="2"
     inkscape:zoom="11.313708"
     inkscape:cx="0.32350844"
     inkscape:cy="18.979081"
     inkscape:current-layer="layer1"
     showgrid="true"
     inkscape:grid-bbox="true"
     inkscape:document-units="px"
     inkscape:showpageshadow="false"
     inkscape:window-width="1600"
     inkscape:window-height="875"
     inkscape:window-x="0"
     inkscape:window-y="25"
     width="400px"
     height="300px"
     inkscape:snap-nodes="true"
     inkscape:snap-bbox="true"
     gridtolerance="10000"
     inkscape:object-nodes="true"
     inkscape:snap-grids="true"
     showguides="false"
     inkscape:guide-bbox="true"
     inkscape:window-maximized="1"
     inkscape:bbox-nodes="true"
     inkscape:bbox-paths="false"
     inkscape:snap-bbox-edge-midpoints="false"
     inkscape:snap-bbox-midpoints="false"
     objecttolerance="10000"
     guidetolerance="10000"
     borderlayer="true"
     showborder="true"
     guidecolor="#ff0b00"
     guideopacity="1"
     guidehicolor="#001aff"
     guidehiopacity="0.49803922"
     inkscape:snap-global="true">
    <inkscape:grid
       type="xygrid"
       id="grid4347"
       empspacing="5"
       visible="true"
       enabled="true"
       snapvisiblegridlinesonly="true" />
  </sodipodi:namedview>
  <defs
     id="defs3">
    <linearGradient
       id="linearGradient5902">
      <stop
         style="stop-color:#000000;stop-opacity:1;"
         offset="0"
         id="stop5904" />
      <stop
         style="stop-color:#000000;stop-opacity:0;"
         offset="1"
         id="stop5906" />
    </linearGradient>
    <linearGradient
       inkscape:collect="always"
       xlink:href="#linearGradient5902"
       id="linearGradient5908"
       x1="3.9999969"
       y1="36.967743"
       x2="11.741933"
       y2="36.967743"
       gradientUnits="userSpaceOnUse" />
  </defs>
  <metadata
     id="metadata4">
    <rdf:RDF>
      <cc:Work
         rdf:about="">
        <dc:format>image/svg+xml</dc:format>
        <dc:type
           rdf:resource="http://purl.org/dc/dcmitype/StillImage" />
        <dc:creator>
          <cc:Agent>
            <dc:title />
          </cc:Agent>
        </dc:creator>
        <dc:source />
        <cc:license
           rdf:resource="" />
        <dc:title />
        <dc:subject>
          <rdf:Bag />
        </dc:subject>
        <dc:date />
        <dc:rights>
          <cc:Agent>
            <dc:title />
          </cc:Agent>
        </dc:rights>
        <dc:publisher>
          <cc:Agent>
            <dc:title />
          </cc:Agent>
        </dc:publisher>
        <dc:identifier />
        <dc:relation />
        <dc:language />
        <dc:coverage />
        <dc:description />
        <dc:contributor>
          <cc:Agent>
            <dc:title />
          </cc:Agent>
        </dc:contributor>
      </cc:Work>
      <cc:Work
         rdf:about="">
        <dc:format>image/svg+xml</dc:format>
        <dc:type
           rdf:resource="http://purl.org/dc/dcmitype/StillImage" />
      </cc:Work>
    </rdf:RDF>
  </metadata>
  <g
     style="display:inline"
     inkscape:groupmode="layer"
     inkscape:label="Base"
     id="layer1"
     transform="translate(0,-259)">
    <path
       style="fill:#000000;fill-opacity:1;stroke:none;opacity:0.02"
       d="M 20.5 1 A 19.5 19.5 0 0 0 1 20.5 A 19.5 19.5 0 0 0 20.5 40 A 19.5 19.5 0 0 0 40 20.5 A 19.5 19.5 0 0 0 20.5 1 z M 20.5 2 A 18.5 18.5 0 0 1 39 20.5 A 18.5 18.5 0 0 1 20.5 39 A 18.5 18.5 0 0 1 2 20.5 A 18.5 18.5 0 0 1 20.5 2 z "
       transform="translate(0,259)"
       id="path4178" />
    <path
       style="fill:#000000;fill-opacity:1;stroke:none;opacity:0.12"
       d="M 20.5 2 A 18.5 18.5 0 0 0 2 20.5 A 18.5 18.5 0 0 0 20.5 39 A 18.5 18.5 0 0 0 39 20.5 A 18.5 18.5 0 0 0 20.5 2 z M 20.5 3 A 17.5 17.5 0 0 1 38 20.5 A 17.5 17.5 0 0 1 20.5 38 A 17.5 17.5 0 0 1 3 20.5 A 17.5 17.5 0 0 1 20.5 3 z "
       id="path4173"
       transform="translate(0,259)" />
    <path
       style="fill:#000000;fill-opacity:1;stroke:none;opacity:0.9"
       d="M 20.5 3 A 17.5 17.5 0 0 0 3 20.5 A 17.5 17.5 0 0 0 20.5 38 A 17.5 17.5 0 0 0 38 20.5 A 17.5 17.5 0 0 0 20.5 3 z M 20.5 4.4023438 A 16.096783 16.096783 0 0 1 36.597656 20.5 A 16.096783 16.096783 0 0 1 20.5 36.597656 A 16.096783 16.096783 0 0 1 4.4023438 20.5 A 16.096783 16.096783 0 0 1 20.5 4.4023438 z "
       id="circle4240"
       transform="translate(0,259)" />
    <circle
       id="path5896"
       style="opacity:0.78;fill:#131619;fill-opacity:1;stroke:none"
       cx="20.500002"
       cy="279.5"
       r="16.499998" />
    <circle
       style="fill:url(#linearGradient5908);fill-opacity:1;stroke:none;opacity:0.6"
       id="path5900"
       transform="matrix(0,-1.0333333,1.0333333,0,-1.1999994,299.13333)"
       d="M 34,21 A 15,15 0 0 1 19,36 15,15 0 0 1 4,21 15,15 0 0 1 19,6 15,15 0 0 1 34,21 Z"
       sodipodi:type="arc"
       sodipodi:ry="15"
       sodipodi:rx="15"
       sodipodi:cy="21"
       sodipodi:cx="19" />
    <circle
       r="14.5"
       cy="279.5"
       cx="20.5"
       id="circle4191"
       style="fill:#000000;fill-opacity:1;stroke:none" />
    <circle
       style="fill:#bf5151;fill-opacity:1;stroke:none"
       id="path5700"
       cx="20.5"
       cy="279.5"
       r="13.5" />
    <path
       sodipodi:nodetypes="ccccccccccccccccc"
       inkscape:connector-curvature="0"
       id="path4167"
       d="M 17.502513,275 16,275 l 0,1.50251 2.997487,2.9975 L 16,282.49749 16,284 17.502513,284 20.5,281.00251 23.497487,284 25,284 25,282.49749 22.002513,279.50001 25,276.50251 25,275 23.497487,275 20.5,277.99749 z"
       style="font-size:medium;font-style:normal;font-variant:normal;font-weight:normal;font-stretch:normal;text-indent:0;text-align:start;text-decoration:none;line-height:normal;letter-spacing:normal;word-spacing:normal;text-transform:none;direction:ltr;block-progression:tb;writing-mode:lr-tb;text-anchor:start;baseline-shift:baseline;opacity:1;color:#000000;fill:#ffffff;fill-opacity:1;stroke:none;stroke-width:2;marker:none;visibility:visible;display:inline;overflow:visible;enable-background:accumulate;font-family:Sans;-inkscape-font-specification:Sans" />
  </g>
</svg>
