<?xml version="1.0" encoding="UTF-8" standalone="no"?>
<!-- Created with Inkscape (http://www.inkscape.org/) -->

<svg
   xmlns:dc="http://purl.org/dc/elements/1.1/"
   xmlns:cc="http://creativecommons.org/ns#"
   xmlns:rdf="http://www.w3.org/1999/02/22-rdf-syntax-ns#"
   xmlns:svg="http://www.w3.org/2000/svg"
   xmlns="http://www.w3.org/2000/svg"
   xmlns:sodipodi="http://sodipodi.sourceforge.net/DTD/sodipodi-0.dtd"
   xmlns:inkscape="http://www.inkscape.org/namespaces/inkscape"
   id="svg2"
   version="1.1"
   inkscape:version="0.48+devel r"
   width="16"
   height="16"
   viewBox="0 0 20 20"
   sodipodi:docname="c7.svg">
  <metadata
     id="metadata8">
    <rdf:RDF>
      <cc:Work
         rdf:about="">
        <dc:format>image/svg+xml</dc:format>
        <dc:type
           rdf:resource="http://purl.org/dc/dcmitype/StillImage" />
        <dc:title></dc:title>
      </cc:Work>
    </rdf:RDF>
  </metadata>
  <defs
     id="defs6" />
  <sodipodi:namedview
     pagecolor="#ffffff"
     bordercolor="#666666"
     borderopacity="1"
     objecttolerance="10"
     gridtolerance="10"
     guidetolerance="10"
     inkscape:pageopacity="0"
     inkscape:pageshadow="2"
     inkscape:window-width="1366"
     inkscape:window-height="700"
     id="namedview4"
     showgrid="false"
     inkscape:zoom="16.703197"
     inkscape:cx="4.8669948"
     inkscape:cy="10.629935"
     inkscape:window-x="0"
     inkscape:window-y="0"
     inkscape:window-maximized="1"
     inkscape:current-layer="svg2" />
  <path
     style="fill:#adb2b5;fill-opacity:1;stroke:#5e5e5e;stroke-width:0;stroke-linecap:square;stroke-linejoin:round;stroke-miterlimit:4;stroke-opacity:1;stroke-dasharray:none"
     d="M 5.9549767,12.742789 C 4.8311426,11.545607 3.9116419,10.526187 3.9116419,10.47741 c 0,-0.04878 0.3341584,-0.448373 0.7425743,-0.8879933 L 5.3967904,8.7901071 6.5029476,9.7839408 C 7.1113341,10.330549 7.7308137,10.889011 7.879569,11.024966 l 0.2704639,0.247192 3.7498531,-3.7427562 3.749852,-3.7427563 0.869092,0.9104906 c 0.478,0.5007699 0.868785,0.9386273 0.86841,0.9730166 -6.81e-4,0.066482 -9.2281386,9.1947763 -9.329321,9.2291063 -0.032784,0.01112 -0.9791081,-0.959289 -2.1029423,-2.15647 z"
     id="path4072"
     inkscape:connector-curvature="0" />
  <path
     style="fill:#adb2b5;fill-opacity:1;stroke:none"
     d="m 0.00389408,9.9992163 0,-10.01353341 9.99236312,0 9.9923628,0 0,10.01353341 0,10.0135337 -9.9923628,0 -9.99236312,0 0,-10.0135337 z m 18.75685092,0 0,-8.7433178 -8.743318,0 -8.7433173,0 0,8.7433178 0,8.7433177 8.7433173,0 8.743318,0 0,-8.7433177 z"
     id="path4086"
     inkscape:connector-curvature="0" />
</svg>
