<?xml version="1.0" encoding="UTF-8" standalone="no"?>
<!-- Created with Inkscape (http://www.inkscape.org/) -->

<svg
   xmlns:dc="http://purl.org/dc/elements/1.1/"
   xmlns:cc="http://creativecommons.org/ns#"
   xmlns:rdf="http://www.w3.org/1999/02/22-rdf-syntax-ns#"
   xmlns:svg="http://www.w3.org/2000/svg"
   xmlns="http://www.w3.org/2000/svg"
   xmlns:sodipodi="http://sodipodi.sourceforge.net/DTD/sodipodi-0.dtd"
   xmlns:inkscape="http://www.inkscape.org/namespaces/inkscape"
   style="display:inline;enable-background:new"
   version="1.0"
   inkscape:output_extension="org.inkscape.output.svg.inkscape"
   sodipodi:docname="grid-2.svg"
   inkscape:version="0.91 r"
   sodipodi:version="0.32"
   id="svg11300"
   height="24"
   width="24"
   inkscape:export-xdpi="90.000000"
   inkscape:export-ydpi="90.000000">
  <sodipodi:namedview
     stroke="#ef2929"
     fill="#f57900"
     id="base"
     pagecolor="#8c8c8c"
     bordercolor="#ff5e00"
     borderopacity="1"
     inkscape:pageopacity="1"
     inkscape:pageshadow="2"
     inkscape:zoom="20.336391"
     inkscape:cx="-1.6201943"
     inkscape:cy="13.682418"
     inkscape:current-layer="layer1"
     showgrid="true"
     inkscape:grid-bbox="true"
     inkscape:document-units="px"
     inkscape:showpageshadow="false"
     inkscape:window-width="1600"
     inkscape:window-height="875"
     inkscape:window-x="0"
     inkscape:window-y="25"
     width="400px"
     height="300px"
     inkscape:snap-nodes="true"
     inkscape:snap-bbox="true"
     gridtolerance="10000"
     inkscape:object-nodes="true"
     inkscape:snap-grids="true"
     showguides="true"
     inkscape:guide-bbox="true"
     inkscape:window-maximized="1"
     inkscape:bbox-nodes="true"
     inkscape:bbox-paths="false"
     inkscape:snap-bbox-edge-midpoints="false"
     inkscape:snap-bbox-midpoints="false"
     objecttolerance="10000"
     guidetolerance="10000"
     borderlayer="true"
     showborder="true"
     guidecolor="#ff0b00"
     guideopacity="1"
     guidehicolor="#001aff"
     guidehiopacity="0.49803922">
    <inkscape:grid
       type="xygrid"
       id="grid3123"
       empspacing="5"
       visible="true"
       enabled="true"
       snapvisiblegridlinesonly="true" />
  </sodipodi:namedview>
  <defs
     id="defs3" />
  <metadata
     id="metadata4">
    <rdf:RDF>
      <cc:Work
         rdf:about="">
        <dc:format>image/svg+xml</dc:format>
        <dc:type
           rdf:resource="http://purl.org/dc/dcmitype/StillImage" />
        <dc:creator>
          <cc:Agent>
            <dc:title />
          </cc:Agent>
        </dc:creator>
        <dc:source />
        <cc:license
           rdf:resource="" />
        <dc:title />
        <dc:subject>
          <rdf:Bag />
        </dc:subject>
        <dc:date />
        <dc:rights>
          <cc:Agent>
            <dc:title />
          </cc:Agent>
        </dc:rights>
        <dc:publisher>
          <cc:Agent>
            <dc:title />
          </cc:Agent>
        </dc:publisher>
        <dc:identifier />
        <dc:relation />
        <dc:language />
        <dc:coverage />
        <dc:description />
        <dc:contributor>
          <cc:Agent>
            <dc:title />
          </cc:Agent>
        </dc:contributor>
      </cc:Work>
      <cc:Work
         rdf:about="">
        <dc:format>image/svg+xml</dc:format>
        <dc:type
           rdf:resource="http://purl.org/dc/dcmitype/StillImage" />
      </cc:Work>
    </rdf:RDF>
  </metadata>
  <g
     style="display:inline"
     inkscape:groupmode="layer"
     inkscape:label="Base"
     id="layer1"
     transform="translate(0,-276)">
    <g
       id="g3037"
       style="opacity:0.6">
      <path
         id="rect5051"
         d="m 0,282 18,0 0,18 -18,0 z"
         style="opacity:0.5;fill:none;stroke:none"
         inkscape:connector-curvature="0" />
      <path
         id="path5922"
         d="m 2,276 0,1 1,0 0,-1 -1,0 z m 1,1 0,1 1,0 0,-1 -1,0 z m 1,1 0,1 1,0 0,-1 -1,0 z m 1,1 0,1 1,0 0,-1 -1,0 z m 1,1 0,1 1,0 0,-1 -1,0 z m 1,1 0,1 1,0 0,-1 -1,0 z m 1,1 0,1 1,0 0,-1 -1,0 z m 1,1 0,1 1,0 0,-1 -1,0 z m 1,1 0,1 1,0 0,-1 -1,0 z m 1,1 0,1 1,0 0,-1 -1,0 z m 1,1 0,1 1,0 0,-1 -1,0 z m 1,1 0,1 1,0 0,-1 -1,0 z m 1,1 0,1 1,0 0,-1 -1,0 z m 1,1 0,1 1,0 0,-1 -1,0 z m 1,1 0,1 1,0 0,-1 -1,0 z m 1,1 0,1 1,0 0,-1 -1,0 z m 1,1 0,1 1,0 0,-1 -1,0 z m 1,1 0,1 1,0 0,-1 -1,0 z m 1,1 0,1 1,0 0,-1 -1,0 z m 1,1 0,1 1,0 0,-1 -1,0 z m 1,1 0,1 1,0 0,-1 -1,0 z m 1,1 0,1 1,0 0,-1 -1,0 z m -18,-21 0,1 1,0 0,-1 -1,0 z m 1,1 0,1 1,0 0,-1 -1,0 z m 1,1 0,1 1,0 0,-1 -1,0 z m 1,1 0,1 1,0 0,-1 -1,0 z m 1,1 0,1 1,0 0,-1 -1,0 z m 1,1 0,1 1,0 0,-1 -1,0 z m 1,1 0,1 1,0 0,-1 -1,0 z m 1,1 0,1 1,0 0,-1 -1,0 z m 1,1 0,1 1,0 0,-1 -1,0 z m 1,1 0,1 1,0 0,-1 -1,0 z m 1,1 0,1 1,0 0,-1 -1,0 z m 1,1 0,1 1,0 0,-1 -1,0 z m 1,1 0,1 1,0 0,-1 -1,0 z m 1,1 0,1 1,0 0,-1 -1,0 z m 1,1 0,1 1,0 0,-1 -1,0 z m 1,1 0,1 1,0 0,-1 -1,0 z m 1,1 0,1 1,0 0,-1 -1,0 z m 1,1 0,1 1,0 0,-1 -1,0 z m 1,1 0,1 1,0 0,-1 -1,0 z m -15,-18 0,1 1,0 0,-1 -1,0 z m 1,1 0,1 1,0 0,-1 -1,0 z m 1,1 0,1 1,0 0,-1 -1,0 z m 1,1 0,1 1,0 0,-1 -1,0 z m 1,1 0,1 1,0 0,-1 -1,0 z m 1,1 0,1 1,0 0,-1 -1,0 z m 1,1 0,1 1,0 0,-1 -1,0 z m 1,1 0,1 1,0 0,-1 -1,0 z m 1,1 0,1 1,0 0,-1 -1,0 z m 1,1 0,1 1,0 0,-1 -1,0 z m 1,1 0,1 1,0 0,-1 -1,0 z m 1,1 0,1 1,0 0,-1 -1,0 z m 1,1 0,1 1,0 0,-1 -1,0 z m 1,1 0,1 1,0 0,-1 -1,0 z m 1,1 0,1 1,0 0,-1 -1,0 z m 1,1 0,1 1,0 0,-1 -1,0 z m -12,-15 0,1 1,0 0,-1 -1,0 z m 1,1 0,1 1,0 0,-1 -1,0 z m 1,1 0,1 1,0 0,-1 -1,0 z m 1,1 0,1 1,0 0,-1 -1,0 z m 1,1 0,1 1,0 0,-1 -1,0 z m 1,1 0,1 1,0 0,-1 -1,0 z m 1,1 0,1 1,0 0,-1 -1,0 z m 1,1 0,1 1,0 0,-1 -1,0 z m 1,1 0,1 1,0 0,-1 -1,0 z m 1,1 0,1 1,0 0,-1 -1,0 z m 1,1 0,1 1,0 0,-1 -1,0 z m 1,1 0,1 1,0 0,-1 -1,0 z m 1,1 0,1 1,0 0,-1 -1,0 z m -9,-12 0,1 1,0 0,-1 -1,0 z m 1,1 0,1 1,0 0,-1 -1,0 z m 1,1 0,1 1,0 0,-1 -1,0 z m 1,1 0,1 1,0 0,-1 -1,0 z m 1,1 0,1 1,0 0,-1 -1,0 z m 1,1 0,1 1,0 0,-1 -1,0 z m 1,1 0,1 1,0 0,-1 -1,0 z m 1,1 0,1 1,0 0,-1 -1,0 z m 1,1 0,1 1,0 0,-1 -1,0 z m 1,1 0,1 1,0 0,-1 -1,0 z m -6,-9 0,1 1,0 0,-1 -1,0 z m 1,1 0,1 1,0 0,-1 -1,0 z m 1,1 0,1 1,0 0,-1 -1,0 z m 1,1 0,1 1,0 0,-1 -1,0 z m 1,1 0,1 1,0 0,-1 -1,0 z m 1,1 0,1 1,0 0,-1 -1,0 z m 1,1 0,1 1,0 0,-1 -1,0 z m -3,-6 0,1 1,0 0,-1 -1,0 z m 1,1 0,1 1,0 0,-1 -1,0 z m 1,1 0,1 1,0 0,-1 -1,0 z m 1,1 0,1 1,0 0,-1 -1,0 z m 0,-3 0,1 1,0 0,-1 -1,0 z m -23,1 0,1 1,0 0,-1 -1,0 z m 1,1 0,1 1,0 0,-1 -1,0 z m 1,1 0,1 1,0 0,-1 -1,0 z m 1,1 0,1 1,0 0,-1 -1,0 z m 1,1 0,1 1,0 0,-1 -1,0 z m 1,1 0,1 1,0 0,-1 -1,0 z m 1,1 0,1 1,0 0,-1 -1,0 z m 1,1 0,1 1,0 0,-1 -1,0 z m 1,1 0,1 1,0 0,-1 -1,0 z m 1,1 0,1 1,0 0,-1 -1,0 z m 1,1 0,1 1,0 0,-1 -1,0 z m 1,1 0,1 1,0 0,-1 -1,0 z m 1,1 0,1 1,0 0,-1 -1,0 z m 1,1 0,1 1,0 0,-1 -1,0 z m 1,1 0,1 1,0 0,-1 -1,0 z m 1,1 0,1 1,0 0,-1 -1,0 z m 1,1 0,1 1,0 0,-1 -1,0 z m 1,1 0,1 1,0 0,-1 -1,0 z m 1,1 0,1 1,0 0,-1 -1,0 z m 1,1 0,1 1,0 0,-1 -1,0 z m 1,1 0,1 1,0 0,-1 -1,0 z m 1,1 0,1 1,0 0,-1 -1,0 z m 1,1 0,1 1,0 0,-1 -1,0 z m -22,-19 0,1 1,0 0,-1 -1,0 z m 1,1 0,1 1,0 0,-1 -1,0 z m 1,1 0,1 1,0 0,-1 -1,0 z m 1,1 0,1 1,0 0,-1 -1,0 z m 1,1 0,1 1,0 0,-1 -1,0 z m 1,1 0,1 1,0 0,-1 -1,0 z m 1,1 0,1 1,0 0,-1 -1,0 z m 1,1 0,1 1,0 0,-1 -1,0 z m 1,1 0,1 1,0 0,-1 -1,0 z m 1,1 0,1 1,0 0,-1 -1,0 z m 1,1 0,1 1,0 0,-1 -1,0 z m 1,1 0,1 1,0 0,-1 -1,0 z m 1,1 0,1 1,0 0,-1 -1,0 z m 1,1 0,1 1,0 0,-1 -1,0 z m 1,1 0,1 1,0 0,-1 -1,0 z m 1,1 0,1 1,0 0,-1 -1,0 z m 1,1 0,1 1,0 0,-1 -1,0 z m 1,1 0,1 1,0 0,-1 -1,0 z m 1,1 0,1 1,0 0,-1 -1,0 z m 1,1 0,1 1,0 0,-1 -1,0 z m -19,-16 0,1 1,0 0,-1 -1,0 z m 1,1 0,1 1,0 0,-1 -1,0 z m 1,1 0,1 1,0 0,-1 -1,0 z m 1,1 0,1 1,0 0,-1 -1,0 z m 1,1 0,1 1,0 0,-1 -1,0 z m 1,1 0,1 1,0 0,-1 -1,0 z m 1,1 0,1 1,0 0,-1 -1,0 z m 1,1 0,1 1,0 0,-1 -1,0 z m 1,1 0,1 1,0 0,-1 -1,0 z m 1,1 0,1 1,0 0,-1 -1,0 z m 1,1 0,1 1,0 0,-1 -1,0 z m 1,1 0,1 1,0 0,-1 -1,0 z m 1,1 0,1 1,0 0,-1 -1,0 z m 1,1 0,1 1,0 0,-1 -1,0 z m 1,1 0,1 1,0 0,-1 -1,0 z m 1,1 0,1 1,0 0,-1 -1,0 z m 1,1 0,1 1,0 0,-1 -1,0 z m -16,-13 0,1 1,0 0,-1 -1,0 z m 1,1 0,1 1,0 0,-1 -1,0 z m 1,1 0,1 1,0 0,-1 -1,0 z m 1,1 0,1 1,0 0,-1 -1,0 z m 1,1 0,1 1,0 0,-1 -1,0 z m 1,1 0,1 1,0 0,-1 -1,0 z m 1,1 0,1 1,0 0,-1 -1,0 z m 1,1 0,1 1,0 0,-1 -1,0 z m 1,1 0,1 1,0 0,-1 -1,0 z m 1,1 0,1 1,0 0,-1 -1,0 z m 1,1 0,1 1,0 0,-1 -1,0 z m 1,1 0,1 1,0 0,-1 -1,0 z m 1,1 0,1 1,0 0,-1 -1,0 z m 1,1 0,1 1,0 0,-1 -1,0 z m -13,-10 0,1 1,0 0,-1 -1,0 z m 1,1 0,1 1,0 0,-1 -1,0 z m 1,1 0,1 1,0 0,-1 -1,0 z m 1,1 0,1 1,0 0,-1 -1,0 z m 1,1 0,1 1,0 0,-1 -1,0 z m 1,1 0,1 1,0 0,-1 -1,0 z m 1,1 0,1 1,0 0,-1 -1,0 z m 1,1 0,1 1,0 0,-1 -1,0 z m 1,1 0,1 1,0 0,-1 -1,0 z m 1,1 0,1 1,0 0,-1 -1,0 z m 1,1 0,1 1,0 0,-1 -1,0 z m -10,-7 0,1 1,0 0,-1 -1,0 z m 1,1 0,1 1,0 0,-1 -1,0 z m 1,1 0,1 1,0 0,-1 -1,0 z m 1,1 0,1 1,0 0,-1 -1,0 z m 1,1 0,1 1,0 0,-1 -1,0 z m 1,1 0,1 1,0 0,-1 -1,0 z m 1,1 0,1 1,0 0,-1 -1,0 z m 1,1 0,1 1,0 0,-1 -1,0 z m -7,-4 0,1 1,0 0,-1 -1,0 z m 1,1 0,1 1,0 0,-1 -1,0 z m 1,1 0,1 1,0 0,-1 -1,0 z m 1,1 0,1 1,0 0,-1 -1,0 z m 1,1 0,1 1,0 0,-1 -1,0 z m -4,-1 0,1 1,0 0,-1 -1,0 z m 1,1 0,1 1,0 0,-1 -1,0 z"
         style="opacity:0.15;fill:#141414;fill-opacity:1;stroke:none"
         inkscape:connector-curvature="0" />
      <path
         id="path5924"
         d="m 0,276 0,1 1,0 0,-1 -1,0 z m 1,1 0,1 1,0 0,-1 -1,0 z m 1,1 0,1 1,0 0,1 1,0 0,-1 0,-1 -1,0 -1,0 z m 2,0 1,0 0,-1 -1,0 0,1 z m 0,-1 0,-1 -1,0 0,1 1,0 z m 1,1 0,1 1,0 0,1 1,0 0,-1 0,-1 -1,0 -1,0 z m 2,0 1,0 0,-1 -1,0 0,1 z m 0,-1 0,-1 -1,0 0,1 1,0 z m 1,1 0,1 1,0 0,1 1,0 0,-1 0,-1 -1,0 -1,0 z m 2,0 1,0 0,-1 -1,0 0,1 z m 0,-1 0,-1 -1,0 0,1 1,0 z m 1,1 0,1 1,0 0,1 1,0 0,-1 0,-1 -1,0 -1,0 z m 2,0 1,0 0,-1 -1,0 0,1 z m 0,-1 0,-1 -1,0 0,1 1,0 z m 1,1 0,1 1,0 0,1 1,0 0,-1 0,-1 -1,0 -1,0 z m 2,0 1,0 0,-1 -1,0 0,1 z m 0,-1 0,-1 -1,0 0,1 1,0 z m 1,1 0,1 1,0 0,1 1,0 0,-1 0,-1 -1,0 -1,0 z m 2,0 1,0 0,-1 -1,0 0,1 z m 0,-1 0,-1 -1,0 0,1 1,0 z m 1,1 0,1 1,0 0,1 1,0 0,-1 0,-1 -1,0 -1,0 z m 2,0 1,0 0,-1 -1,0 0,1 z m 0,-1 0,-1 -1,0 0,1 1,0 z m 1,1 0,1 1,0 0,-1 -1,0 z m -1,2 0,1 1,0 0,-1 -1,0 z m 1,1 0,1 1,0 0,-1 -1,0 z m -1,0 -1,0 -1,0 0,1 1,0 0,1 1,0 0,-1 0,-1 z m 0,2 0,1 1,0 0,-1 -1,0 z m 1,1 0,1 1,0 0,-1 -1,0 z m -1,0 -1,0 -1,0 0,1 1,0 0,1 1,0 0,-1 0,-1 z m 0,2 0,1 1,0 0,-1 -1,0 z m 1,1 0,1 1,0 0,-1 -1,0 z m -1,0 -1,0 -1,0 0,1 1,0 0,1 1,0 0,-1 0,-1 z m 0,2 0,1 1,0 0,-1 -1,0 z m 1,1 0,1 1,0 0,-1 -1,0 z m -1,0 -1,0 -1,0 0,1 1,0 0,1 1,0 0,-1 0,-1 z m 0,2 0,1 1,0 0,-1 -1,0 z m 1,1 0,1 1,0 0,-1 -1,0 z m -1,0 -1,0 -1,0 0,1 1,0 0,1 1,0 0,-1 0,-1 z m 0,2 0,1 1,0 0,-1 -1,0 z m 1,1 0,1 1,0 0,-1 -1,0 z m -1,0 -1,0 -1,0 0,1 1,0 0,1 1,0 0,-1 0,-1 z m 0,2 0,1 1,0 0,-1 -1,0 z m 1,1 0,1 1,0 0,-1 -1,0 z m -1,0 -1,0 -1,0 0,1 1,0 1,0 0,-1 z m -2,0 0,-1 -1,0 0,1 1,0 z m -1,0 -1,0 -1,0 0,1 1,0 1,0 0,-1 z m -2,0 0,-1 -1,0 0,1 1,0 z m -1,0 -1,0 -1,0 0,1 1,0 1,0 0,-1 z m -2,0 0,-1 -1,0 0,1 1,0 z m -1,0 -1,0 -1,0 0,1 1,0 1,0 0,-1 z m -2,0 0,-1 -1,0 0,1 1,0 z m -1,0 -1,0 -1,0 0,1 1,0 1,0 0,-1 z m -2,0 0,-1 -1,0 0,1 1,0 z m -1,0 -1,0 -1,0 0,1 1,0 1,0 0,-1 z m -2,0 0,-1 -1,0 0,1 1,0 z m -1,0 -1,0 -1,0 0,1 1,0 1,0 0,-1 z m -2,0 0,-1 -1,0 0,1 1,0 z m -1,0 -1,0 0,1 1,0 0,-1 z m 0,-1 0,-1 0,-1 -1,0 0,1 0,1 1,0 z m 0,-2 1,0 0,-1 -1,0 0,1 z m 0,-1 0,-1 0,-1 -1,0 0,1 0,1 1,0 z m 0,-2 1,0 0,-1 -1,0 0,1 z m 0,-1 0,-1 0,-1 -1,0 0,1 0,1 1,0 z m 0,-2 1,0 0,-1 -1,0 0,1 z m 0,-1 0,-1 0,-1 -1,0 0,1 0,1 1,0 z m 0,-2 1,0 0,-1 -1,0 0,1 z m 0,-1 0,-1 0,-1 -1,0 0,1 0,1 1,0 z m 0,-2 1,0 0,-1 -1,0 0,1 z m 0,-1 0,-1 0,-1 -1,0 0,1 0,1 1,0 z m 0,-2 1,0 0,-1 -1,0 0,1 z m 0,-1 0,-1 0,-1 -1,0 0,1 0,1 1,0 z m 1,1 0,1 1,0 0,1 1,0 0,-1 0,-1 -1,0 -1,0 z m 2,0 1,0 0,-1 -1,0 0,1 z m 1,0 0,1 1,0 0,1 1,0 0,-1 0,-1 -1,0 -1,0 z m 2,0 1,0 0,-1 -1,0 0,1 z m 1,0 0,1 1,0 0,1 1,0 0,-1 0,-1 -1,0 -1,0 z m 2,0 1,0 0,-1 -1,0 0,1 z m 1,0 0,1 1,0 0,1 1,0 0,-1 0,-1 -1,0 -1,0 z m 2,0 1,0 0,-1 -1,0 0,1 z m 1,0 0,1 1,0 0,1 1,0 0,-1 0,-1 -1,0 -1,0 z m 2,0 1,0 0,-1 -1,0 0,1 z m 1,0 0,1 1,0 0,1 1,0 0,-1 0,-1 -1,0 -1,0 z m 2,0 1,0 0,-1 -1,0 0,1 z m 0,2 0,1 1,0 0,-1 -1,0 z m 0,1 -1,0 -1,0 0,1 1,0 0,1 1,0 0,-1 0,-1 z m 0,2 0,1 1,0 0,-1 -1,0 z m 0,1 -1,0 -1,0 0,1 1,0 0,1 1,0 0,-1 0,-1 z m 0,2 0,1 1,0 0,-1 -1,0 z m 0,1 -1,0 -1,0 0,1 1,0 0,1 1,0 0,-1 0,-1 z m 0,2 0,1 1,0 0,-1 -1,0 z m 0,1 -1,0 -1,0 0,1 1,0 0,1 1,0 0,-1 0,-1 z m 0,2 0,1 1,0 0,-1 -1,0 z m 0,1 -1,0 -1,0 0,1 1,0 0,1 1,0 0,-1 0,-1 z m -2,0 0,-1 -1,0 0,1 1,0 z m -1,0 -1,0 -1,0 0,1 1,0 0,1 1,0 0,-1 0,-1 z m -2,0 0,-1 -1,0 0,1 1,0 z m -1,0 -1,0 -1,0 0,1 1,0 0,1 1,0 0,-1 0,-1 z m -2,0 0,-1 -1,0 0,1 1,0 z m -1,0 -1,0 -1,0 0,1 1,0 0,1 1,0 0,-1 0,-1 z m -2,0 0,-1 -1,0 0,1 1,0 z m -1,0 -1,0 -1,0 0,1 1,0 0,1 1,0 0,-1 0,-1 z m -2,0 0,-1 -1,0 0,1 1,0 z m -1,0 -1,0 -1,0 0,1 1,0 0,1 1,0 0,-1 0,-1 z m 0,-1 0,-1 0,-1 -1,0 -1,0 0,1 1,0 0,1 1,0 z m 0,-2 1,0 0,-1 -1,0 0,1 z m 0,-1 0,-1 0,-1 -1,0 -1,0 0,1 1,0 0,1 1,0 z m 0,-2 1,0 0,-1 -1,0 0,1 z m 0,-1 0,-1 0,-1 -1,0 -1,0 0,1 1,0 0,1 1,0 z m 0,-2 1,0 0,-1 -1,0 0,1 z m 0,-1 0,-1 0,-1 -1,0 -1,0 0,1 1,0 0,1 1,0 z m 0,-2 1,0 0,-1 -1,0 0,1 z m 1,0 0,1 1,0 0,1 1,0 0,-1 0,-1 -1,0 -1,0 z m 2,0 1,0 0,-1 -1,0 0,1 z m 1,0 0,1 1,0 0,1 1,0 0,-1 0,-1 -1,0 -1,0 z m 2,0 1,0 0,-1 -1,0 0,1 z m 1,0 0,1 1,0 0,1 1,0 0,-1 0,-1 -1,0 -1,0 z m 2,0 1,0 0,-1 -1,0 0,1 z m 1,0 0,1 1,0 0,1 1,0 0,-1 0,-1 -1,0 -1,0 z m 2,0 1,0 0,-1 -1,0 0,1 z m 0,2 0,1 1,0 0,-1 -1,0 z m 0,1 -1,0 -1,0 0,1 1,0 0,1 1,0 0,-1 0,-1 z m 0,2 0,1 1,0 0,-1 -1,0 z m 0,1 -1,0 -1,0 0,1 1,0 0,1 1,0 0,-1 0,-1 z m 0,2 0,1 1,0 0,-1 -1,0 z m 0,1 -1,0 -1,0 0,1 1,0 0,1 1,0 0,-1 0,-1 z m -2,0 0,-1 -1,0 0,1 1,0 z m -1,0 -1,0 -1,0 0,1 1,0 0,1 1,0 0,-1 0,-1 z m -2,0 0,-1 -1,0 0,1 1,0 z m -1,0 -1,0 -1,0 0,1 1,0 0,1 1,0 0,-1 0,-1 z m -2,0 0,-1 -1,0 0,1 1,0 z m -1,0 -1,0 -1,0 0,1 1,0 0,1 1,0 0,-1 0,-1 z m 0,-1 0,-1 0,-1 -1,0 -1,0 0,1 1,0 0,1 1,0 z m 0,-2 1,0 0,-1 -1,0 0,1 z m 0,-1 0,-1 0,-1 -1,0 -1,0 0,1 1,0 0,1 1,0 z m 0,-2 1,0 0,-1 -1,0 0,1 z m 1,0 0,1 1,0 0,1 1,0 0,-1 0,-1 -1,0 -1,0 z m 2,0 1,0 0,-1 -1,0 0,1 z m 1,0 0,1 1,0 0,1 1,0 0,-1 0,-1 -1,0 -1,0 z m 2,0 1,0 0,-1 -1,0 0,1 z m 0,2 0,1 1,0 0,-1 -1,0 z m 0,1 -1,0 -1,0 0,1 1,0 0,1 1,0 0,-1 0,-1 z m -2,0 0,-1 -1,0 0,1 1,0 z m -1,0 -1,0 -1,0 0,1 1,0 0,1 1,0 0,-1 0,-1 z"
         style="opacity:0.07999998;fill:#2d2d2d;fill-opacity:1;stroke:none"
         inkscape:connector-curvature="0" />
      <path
         id="path5926"
         d="m 1,276 0,1 1,0 0,-1 -1,0 z m 1,1 0,1 1,0 0,-1 -1,0 z m 2,-1 0,1 1,0 0,-1 -1,0 z m 1,1 0,1 1,0 0,-1 -1,0 z m 2,-1 0,1 1,0 0,-1 -1,0 z m 1,1 0,1 1,0 0,-1 -1,0 z m 2,-1 0,1 1,0 0,-1 -1,0 z m 1,1 0,1 1,0 0,-1 -1,0 z m 2,-1 0,1 1,0 0,-1 -1,0 z m 1,1 0,1 1,0 0,-1 -1,0 z m 2,-1 0,1 1,0 0,-1 -1,0 z m 1,1 0,1 1,0 0,-1 -1,0 z m 2,-1 0,1 1,0 0,-1 -1,0 z m 1,1 0,1 1,0 0,-1 -1,0 z m 2,-1 0,1 1,0 0,-1 -1,0 z m 1,1 0,1 1,0 0,-1 -1,0 z m -22,2 0,1 1,0 0,-1 -1,0 z m 1,1 0,1 1,0 0,-1 -1,0 z m 2,-1 0,1 1,0 0,-1 -1,0 z m 1,1 0,1 1,0 0,-1 -1,0 z m 2,-1 0,1 1,0 0,-1 -1,0 z m 1,1 0,1 1,0 0,-1 -1,0 z m 2,-1 0,1 1,0 0,-1 -1,0 z m 1,1 0,1 1,0 0,-1 -1,0 z m 2,-1 0,1 1,0 0,-1 -1,0 z m 1,1 0,1 1,0 0,-1 -1,0 z m 2,-1 0,1 1,0 0,-1 -1,0 z m 1,1 0,1 1,0 0,-1 -1,0 z m 2,-1 0,1 1,0 0,-1 -1,0 z m 1,1 0,1 1,0 0,-1 -1,0 z m 2,-1 0,1 1,0 0,-1 -1,0 z m 1,1 0,1 1,0 0,-1 -1,0 z m -22,2 0,1 1,0 0,-1 -1,0 z m 1,1 0,1 1,0 0,-1 -1,0 z m 2,-1 0,1 1,0 0,-1 -1,0 z m 1,1 0,1 1,0 0,-1 -1,0 z m 2,-1 0,1 1,0 0,-1 -1,0 z m 1,1 0,1 1,0 0,-1 -1,0 z m 2,-1 0,1 1,0 0,-1 -1,0 z m 1,1 0,1 1,0 0,-1 -1,0 z m 2,-1 0,1 1,0 0,-1 -1,0 z m 1,1 0,1 1,0 0,-1 -1,0 z m 2,-1 0,1 1,0 0,-1 -1,0 z m 1,1 0,1 1,0 0,-1 -1,0 z m 2,-1 0,1 1,0 0,-1 -1,0 z m 1,1 0,1 1,0 0,-1 -1,0 z m 2,-1 0,1 1,0 0,-1 -1,0 z m 1,1 0,1 1,0 0,-1 -1,0 z m -22,2 0,1 1,0 0,-1 -1,0 z m 1,1 0,1 1,0 0,-1 -1,0 z m 2,-1 0,1 1,0 0,-1 -1,0 z m 1,1 0,1 1,0 0,-1 -1,0 z m 2,-1 0,1 1,0 0,-1 -1,0 z m 1,1 0,1 1,0 0,-1 -1,0 z m 2,-1 0,1 1,0 0,-1 -1,0 z m 1,1 0,1 1,0 0,-1 -1,0 z m 2,-1 0,1 1,0 0,-1 -1,0 z m 1,1 0,1 1,0 0,-1 -1,0 z m 2,-1 0,1 1,0 0,-1 -1,0 z m 1,1 0,1 1,0 0,-1 -1,0 z m 2,-1 0,1 1,0 0,-1 -1,0 z m 1,1 0,1 1,0 0,-1 -1,0 z m 2,-1 0,1 1,0 0,-1 -1,0 z m 1,1 0,1 1,0 0,-1 -1,0 z m -22,2 0,1 1,0 0,-1 -1,0 z m 1,1 0,1 1,0 0,-1 -1,0 z m 2,-1 0,1 1,0 0,-1 -1,0 z m 1,1 0,1 1,0 0,-1 -1,0 z m 2,-1 0,1 1,0 0,-1 -1,0 z m 1,1 0,1 1,0 0,-1 -1,0 z m 2,-1 0,1 1,0 0,-1 -1,0 z m 1,1 0,1 1,0 0,-1 -1,0 z m 2,-1 0,1 1,0 0,-1 -1,0 z m 1,1 0,1 1,0 0,-1 -1,0 z m 2,-1 0,1 1,0 0,-1 -1,0 z m 1,1 0,1 1,0 0,-1 -1,0 z m 2,-1 0,1 1,0 0,-1 -1,0 z m 1,1 0,1 1,0 0,-1 -1,0 z m 2,-1 0,1 1,0 0,-1 -1,0 z m 1,1 0,1 1,0 0,-1 -1,0 z m -22,2 0,1 1,0 0,-1 -1,0 z m 1,1 0,1 1,0 0,-1 -1,0 z m 2,-1 0,1 1,0 0,-1 -1,0 z m 1,1 0,1 1,0 0,-1 -1,0 z m 2,-1 0,1 1,0 0,-1 -1,0 z m 1,1 0,1 1,0 0,-1 -1,0 z m 2,-1 0,1 1,0 0,-1 -1,0 z m 1,1 0,1 1,0 0,-1 -1,0 z m 2,-1 0,1 1,0 0,-1 -1,0 z m 1,1 0,1 1,0 0,-1 -1,0 z m 2,-1 0,1 1,0 0,-1 -1,0 z m 1,1 0,1 1,0 0,-1 -1,0 z m 2,-1 0,1 1,0 0,-1 -1,0 z m 1,1 0,1 1,0 0,-1 -1,0 z m 2,-1 0,1 1,0 0,-1 -1,0 z m 1,1 0,1 1,0 0,-1 -1,0 z m -22,2 0,1 1,0 0,-1 -1,0 z m 1,1 0,1 1,0 0,-1 -1,0 z m 2,-1 0,1 1,0 0,-1 -1,0 z m 1,1 0,1 1,0 0,-1 -1,0 z m 2,-1 0,1 1,0 0,-1 -1,0 z m 1,1 0,1 1,0 0,-1 -1,0 z m 2,-1 0,1 1,0 0,-1 -1,0 z m 1,1 0,1 1,0 0,-1 -1,0 z m 2,-1 0,1 1,0 0,-1 -1,0 z m 1,1 0,1 1,0 0,-1 -1,0 z m 2,-1 0,1 1,0 0,-1 -1,0 z m 1,1 0,1 1,0 0,-1 -1,0 z m 2,-1 0,1 1,0 0,-1 -1,0 z m 1,1 0,1 1,0 0,-1 -1,0 z m 2,-1 0,1 1,0 0,-1 -1,0 z m 1,1 0,1 1,0 0,-1 -1,0 z m -22,2 0,1 1,0 0,-1 -1,0 z m 1,1 0,1 1,0 0,-1 -1,0 z m 2,-1 0,1 1,0 0,-1 -1,0 z m 1,1 0,1 1,0 0,-1 -1,0 z m 2,-1 0,1 1,0 0,-1 -1,0 z m 1,1 0,1 1,0 0,-1 -1,0 z m 2,-1 0,1 1,0 0,-1 -1,0 z m 1,1 0,1 1,0 0,-1 -1,0 z m 2,-1 0,1 1,0 0,-1 -1,0 z m 1,1 0,1 1,0 0,-1 -1,0 z m 2,-1 0,1 1,0 0,-1 -1,0 z m 1,1 0,1 1,0 0,-1 -1,0 z m 2,-1 0,1 1,0 0,-1 -1,0 z m 1,1 0,1 1,0 0,-1 -1,0 z m 2,-1 0,1 1,0 0,-1 -1,0 z m 1,1 0,1 1,0 0,-1 -1,0 z"
         style="opacity:0.05;fill:#4d4d4d;fill-opacity:1;stroke:none"
         inkscape:connector-curvature="0" />
    </g>
    <path
       inkscape:connector-curvature="0"
       id="rect3007"
       d="m 7,276 0,7 -7,0 0,1 7,0 0,7 -7,0 0,1 7,0 0,7 -7,0 0,1 24,0 0,-24 -1,0 0,7 -7,0 0,-7 -1,0 0,7 -7,0 0,-7 -1,0 z m 1,8 7,0 0,7 -7,0 0,-7 z m 8,0 7,0 0,7 -7,0 0,-7 z m -8,8 7,0 0,7 -7,0 0,-7 z m 8,0 7,0 0,7 -7,0 0,-7 z"
       style="opacity:0.07;fill:#000000;fill-opacity:1" />
  </g>
</svg>
