<?xml version="1.0" encoding="UTF-8" standalone="no"?>
<!-- Created with Inkscape (http://www.inkscape.org/) -->

<svg
   xmlns:dc="http://purl.org/dc/elements/1.1/"
   xmlns:cc="http://creativecommons.org/ns#"
   xmlns:rdf="http://www.w3.org/1999/02/22-rdf-syntax-ns#"
   xmlns:svg="http://www.w3.org/2000/svg"
   xmlns="http://www.w3.org/2000/svg"
   xmlns:sodipodi="http://sodipodi.sourceforge.net/DTD/sodipodi-0.dtd"
   xmlns:inkscape="http://www.inkscape.org/namespaces/inkscape"
   width="20"
   height="20"
   id="svg2"
   version="1.1"
   inkscape:version="0.48.4 r9939"
   sodipodi:docname="checkbox-focused.svg">
  <defs
     id="defs4" />
  <sodipodi:namedview
     id="base"
     pagecolor="#ffffff"
     bordercolor="#666666"
     borderopacity="1.0"
     inkscape:pageopacity="0.0"
     inkscape:pageshadow="2"
     inkscape:zoom="22.627417"
     inkscape:cx="5.0645059"
     inkscape:cy="13.129941"
     inkscape:document-units="px"
     inkscape:current-layer="layer1"
     showgrid="false"
     inkscape:window-width="1440"
     inkscape:window-height="852"
     inkscape:window-x="0"
     inkscape:window-y="25"
     inkscape:window-maximized="1" />
  <metadata
     id="metadata7">
    <rdf:RDF>
      <cc:Work
         rdf:about="">
        <dc:format>image/svg+xml</dc:format>
        <dc:type
           rdf:resource="http://purl.org/dc/dcmitype/StillImage" />
      </cc:Work>
    </rdf:RDF>
  </metadata>
  <g
     inkscape:label="Calque 1"
     inkscape:groupmode="layer"
     id="layer1">
    <rect
       style="fill:#aaaaaa;fill-opacity:1;fill-rule:evenodd;stroke:#444444;stroke-width:0.78401244000000003;stroke-linejoin:miter;stroke-miterlimit:4;stroke-opacity:1;stroke-dasharray:none"
       id="rect2985"
       width="19.215992"
       height="19.21599"
       x="0.39177629"
       y="0.39200372"
       rx="1.1529597"
       ry="1.1529597" />
    <path
       style="fill:#666666;fill-opacity:1;fill-rule:evenodd;stroke:#10862d;stroke-width:1.30560017;stroke-linecap:butt;stroke-linejoin:miter;stroke-miterlimit:4;stroke-opacity:1;stroke-dasharray:none"
       id="path3005"
       d="m 7.9045078,15.228478 c 0.3778756,0.268824 0.793541,0.145619 1.2357453,-0.04015 1.8445699,-1.656259 3.1053289,-3.692802 4.1735429,-5.5004028 1.191545,-2.059111 2.396036,-4.1102491 3.625874,-6.1467023 l 0.03197,-0.014166 0,0 c -1.22987,2.0364257 -2.434386,4.087545 -3.625885,6.1466763 -0.571714,0.9631678 -0.853097,1.5586008 -1.44614,2.4882348 -0.213986,0.335441 -0.39747,0.643798 -0.615824,0.976412 -0.314621,0.479258 -0.499236,0.766671 -1.015143,1.40726 C 9.6713989,15.203933 9.2589626,15.466981 8.762076,15.813925 8.4113194,16.044532 7.9837753,16.272452 7.5476178,16.155562 7.2918423,16.087011 7.1852241,15.951874 6.9938966,15.7832 6.4196457,15.065349 5.9868477,14.251316 5.4801486,13.486324 4.9801768,12.727028 4.4785702,11.966749 3.9147634,11.252698 3.6960595,10.958481 3.4778334,10.633336 3.1725711,10.422181 c 2.8081255,0.02036 3.015369,2.863322 4.7319367,4.806295 z"
       inkscape:connector-curvature="0"
       sodipodi:nodetypes="cccccccssccsccccc" />
    <path
       style="fill:#666666;fill-opacity:1;fill-rule:evenodd;stroke:#555555;stroke-width:0.4000001;stroke-linejoin:miter;stroke-miterlimit:4;stroke-opacity:1;stroke-dasharray:none"
       id="path3017"
       d=""
       inkscape:connector-curvature="0" />
  </g>
</svg>
